HIERARCHY
ROOT pelvis
{
	OFFSET 0.003123 -0.351407 0.012037
	CHANNELS 6 Xposition Yposition Zposition Zrotation Yrotation Xrotation 
	JOINT left_hip
	{
		OFFSET 0.058189 -0.092763 -0.026001
		CHANNELS 3 Zrotation Yrotation Xrotation
		JOINT left_knee
		{
			OFFSET 0.054695 -0.378753 -0.009396
			CHANNELS 3 Zrotation Yrotation Xrotation
			JOINT left_ankle
			{
				OFFSET -0.043453 -0.403059 -0.031876
				CHANNELS 3 Zrotation Yrotation Xrotation
				JOINT left_foot
				{
					OFFSET 0.047257 -0.057997 0.118216
					CHANNELS 3 Zrotation Yrotation Xrotation
					End Site
					{
						OFFSET 0.000000 0.000000 0.000000
					}
				}
			}
		}
	}
	JOINT right_hip
	{
		OFFSET -0.063267 -0.103908 -0.021250
		CHANNELS 3 Zrotation Yrotation Xrotation
		JOINT right_knee
		{
			OFFSET -0.044210 -0.362380 -0.016824
			CHANNELS 3 Zrotation Yrotation Xrotation
			JOINT right_ankle
			{
				OFFSET 0.015417 -0.410728 -0.020192
				CHANNELS 3 Zrotation Yrotation Xrotation
				JOINT right_foot
				{
					OFFSET -0.038812 -0.058328 0.119049
					CHANNELS 3 Zrotation Yrotation Xrotation
					End Site
					{
						OFFSET 0.000000 0.000000 0.000000
					}
				}
			}
		}
	}
	JOINT spine_1
	{
		OFFSET -0.002763 0.109891 -0.027618
		CHANNELS 3 Zrotation Yrotation Xrotation
		JOINT spine_2
		{
			OFFSET 0.009448 0.131853 -0.005940
			CHANNELS 3 Zrotation Yrotation Xrotation
			JOINT spine_3
			{
				OFFSET -0.011330 0.052235 0.028447
				CHANNELS 3 Zrotation Yrotation Xrotation
				JOINT neck
				{
					OFFSET -0.012164 0.165167 -0.031615
					CHANNELS 3 Zrotation Yrotation Xrotation
					JOINT head
					{
						OFFSET 0.024783 0.160452 0.020737
						CHANNELS 3 Zrotation Yrotation Xrotation
						End Site
						{
							OFFSET 0.000000 0.000000 0.000000
						}
					}
				}
				JOINT left_collar
				{
					OFFSET 0.046364 0.084944 -0.007220
					CHANNELS 3 Zrotation Yrotation Xrotation
					JOINT left_shoulder
					{
						OFFSET 0.119239 0.057728 -0.015461
						CHANNELS 3 Zrotation Yrotation Xrotation
						JOINT left_elbow
						{
							OFFSET 0.254123 -0.072151 -0.042459
							CHANNELS 3 Zrotation Yrotation Xrotation
							JOINT left_wrist
							{
								OFFSET 0.251987 0.023221 -0.002472
								CHANNELS 3 Zrotation Yrotation Xrotation
								JOINT left_index_1
								{
									OFFSET 0.101902 -0.008688 0.019351
									CHANNELS 3 Zrotation Yrotation Xrotation
									JOINT left_index_2
									{
										OFFSET 0.030149 -0.011154 0.001151
										CHANNELS 3 Zrotation Yrotation Xrotation
										JOINT left_index_3
										{
											OFFSET 0.006504 -0.021577 -0.002433
											CHANNELS 3 Zrotation Yrotation Xrotation
											End Site
											{
												OFFSET 0.000000 0.000000 0.000000
											}
										}
									}
								}
								JOINT left_middle_1
								{
									OFFSET 0.109398 -0.006328 -0.003981
									CHANNELS 3 Zrotation Yrotation Xrotation
									JOINT left_middle_2
									{
										OFFSET 0.026472 -0.015218 -0.004641
										CHANNELS 3 Zrotation Yrotation Xrotation
										JOINT left_middle_3
										{
											OFFSET 0.005022 -0.023347 -0.001911
											CHANNELS 3 Zrotation Yrotation Xrotation
											End Site
											{
												OFFSET 0.000000 0.000000 0.000000
											}
										}
									}
								}
								JOINT left_pinky_1
								{
									OFFSET 0.084047 -0.014539 -0.043750
									CHANNELS 3 Zrotation Yrotation Xrotation
									JOINT left_pinky_2
									{
										OFFSET 0.012124 -0.014448 -0.005375
										CHANNELS 3 Zrotation Yrotation Xrotation
										JOINT left_pinky_3
										{
											OFFSET 0.003798 -0.018853 0.000167
											CHANNELS 3 Zrotation Yrotation Xrotation
											End Site
											{
												OFFSET 0.000000 0.000000 0.000000
											}
										}
									}
								}
								JOINT left_ring_1
								{
									OFFSET 0.097444 -0.009268 -0.027345
									CHANNELS 3 Zrotation Yrotation Xrotation
									JOINT left_ring_2
									{
										OFFSET 0.023561 -0.016057 -0.001895
										CHANNELS 3 Zrotation Yrotation Xrotation
										JOINT left_ring_3
										{
											OFFSET 0.004257 -0.023548 0.000814
											CHANNELS 3 Zrotation Yrotation Xrotation
											End Site
											{
												OFFSET 0.000000 0.000000 0.000000
											}
										}
									}
								}
								JOINT left_thumb_1
								{
									OFFSET 0.040636 -0.017977 0.025611
									CHANNELS 3 Zrotation Yrotation Xrotation
									JOINT left_thumb_2
									{
										OFFSET 0.021637 -0.017639 0.011623
										CHANNELS 3 Zrotation Yrotation Xrotation
										JOINT left_thumb_3
										{
											OFFSET 0.024002 -0.008356 0.006548
											CHANNELS 3 Zrotation Yrotation Xrotation
											End Site
											{
												OFFSET 0.000000 0.000000 0.000000
											}
										}
									}
								}
							}
						}
					}
				}
				JOINT right_collar
				{
					OFFSET -0.047695 0.084339 -0.013400
					CHANNELS 3 Zrotation Yrotation Xrotation
					JOINT right_shoulder
					{
						OFFSET -0.102578 0.053524 -0.012669
						CHANNELS 3 Zrotation Yrotation Xrotation
						JOINT right_elbow
						{
							OFFSET -0.271150 -0.036492 -0.026467
							CHANNELS 3 Zrotation Yrotation Xrotation
							JOINT right_wrist
							{
								OFFSET -0.249267 -0.004533 -0.015325
								CHANNELS 3 Zrotation Yrotation Xrotation
								JOINT right_index_1
								{
									OFFSET -0.099881 -0.011783 0.019600
									CHANNELS 3 Zrotation Yrotation Xrotation
									JOINT right_index_2
									{
										OFFSET -0.030148 -0.011154 0.001151
										CHANNELS 3 Zrotation Yrotation Xrotation
										JOINT right_index_3
										{
											OFFSET -0.006505 -0.021577 -0.002432
											CHANNELS 3 Zrotation Yrotation Xrotation
											End Site
											{
												OFFSET 0.000000 0.000000 0.000000
											}
										}
									}
								}
								JOINT right_middle_1
								{
									OFFSET -0.107376 -0.009422 -0.003734
									CHANNELS 3 Zrotation Yrotation Xrotation
									JOINT right_middle_2
									{
										OFFSET -0.026472 -0.015218 -0.004641
										CHANNELS 3 Zrotation Yrotation Xrotation
										JOINT right_middle_3
										{
											OFFSET -0.005022 -0.023347 -0.001911
											CHANNELS 3 Zrotation Yrotation Xrotation
											End Site
											{
												OFFSET 0.000000 0.000000 0.000000
											}
										}
									}
								}
								JOINT right_pinky_1
								{
									OFFSET -0.082027 -0.017634 -0.043503
									CHANNELS 3 Zrotation Yrotation Xrotation
									JOINT right_pinky_2
									{
										OFFSET -0.012123 -0.014448 -0.005374
										CHANNELS 3 Zrotation Yrotation Xrotation
										JOINT right_pinky_3
										{
											OFFSET -0.003798 -0.018852 0.000167
											CHANNELS 3 Zrotation Yrotation Xrotation
											End Site
											{
												OFFSET 0.000000 0.000000 0.000000
											}
										}
									}
								}
								JOINT right_ring_1
								{
									OFFSET -0.095423 -0.012362 -0.027099
									CHANNELS 3 Zrotation Yrotation Xrotation
									JOINT right_ring_2
									{
										OFFSET -0.023561 -0.016057 -0.001895
										CHANNELS 3 Zrotation Yrotation Xrotation
										JOINT right_ring_3
										{
											OFFSET -0.004257 -0.023548 0.000816
											CHANNELS 3 Zrotation Yrotation Xrotation
											End Site
											{
												OFFSET 0.000000 0.000000 0.000000
											}
										}
									}
								}
								JOINT right_thumb_1
								{
									OFFSET -0.038613 -0.021074 0.025861
									CHANNELS 3 Zrotation Yrotation Xrotation
									JOINT right_thumb_2
									{
										OFFSET -0.021636 -0.017639 0.011623
										CHANNELS 3 Zrotation Yrotation Xrotation
										JOINT right_thumb_3
										{
											OFFSET -0.024004 -0.008353 0.006547
											CHANNELS 3 Zrotation Yrotation Xrotation
											End Site
											{
												OFFSET 0.000000 0.000000 0.000000
											}
										}
									}
								}
							}
						}
					}
				}
			}
		}
	}
}
MOTION
Frames: 4
Frame Time: 0.050000
-0.447533 0.898874 2.903015 -0.450928 -13.472809 -1.046469 3.271852 -2.143259 -29.690275 -3.165532 0.101944 3.465794 11.618685 28.424947 54.348276 0.000000 0.000000 0.000000 1.810299 -2.448570 23.822017 -0.875439 0.111644 2.072157 0.786509 14.067504 -11.729778 0.000000 0.000000 0.000000 -4.164935 -0.632048 28.535566 -8.486395 0.026409 -13.513156 12.330725 1.276414 16.322246 0.104130 1.576338 -11.138703 0.000000 0.000000 0.000000 18.382687 -8.926489 3.556982 19.845396 -54.028885 -24.550575 11.234529 -13.862914 0.226130 47.213672 9.809825 -32.216465 17.872245 0.913846 1.094529 5.186857 -4.769545 -15.588158 0.000000 0.000000 0.000000 0.685082 -15.841853 -5.362693 18.565217 2.101696 -8.127858 0.000000 0.000000 0.000000 10.362120 -17.765030 -20.785828 21.660346 -0.892715 -4.595915 0.000000 0.000000 0.000000 -1.237485 -12.402257 -5.908355 24.996744 0.930708 -18.411807 0.000000 0.000000 0.000000 28.296982 14.681441 -3.818026 -7.231435 -14.406307 -3.237744 0.000000 0.000000 0.000000 -37.661230 21.714647 7.449944 -13.743552 56.192974 -17.941972 -27.241171 7.456301 -0.647812 -19.121520 -10.304379 -40.087461 -11.281261 0.565060 0.339513 -18.301203 5.521286 -25.325295 0.000000 0.000000 0.000000 1.013383 16.721690 -7.780564 -19.231217 1.164590 -18.771111 0.000000 0.000000 0.000000 -11.662323 18.098300 -25.147214 -18.876202 -0.247119 1.641863 0.000000 0.000000 0.000000 2.590454 17.227143 -10.167046 -26.289996 -1.272954 -15.498105 0.000000 0.000000 0.000000 -36.209179 -14.080613 -4.843897 16.608821 15.130044 0.876823 0.000000 0.000000 0.000000 
-0.472031 0.828926 3.124756 1.247412 -18.686443 1.519275 5.117167 -0.531438 -44.472346 -12.659104 3.799164 37.366692 8.821332 17.090685 2.120091 0.000000 0.000000 0.000000 -4.546918 0.007425 27.255054 -0.752823 0.876448 14.218944 4.216209 13.044555 -4.357534 0.000000 0.000000 0.000000 -7.858282 0.652234 29.849760 -9.972782 -0.213889 -15.447465 9.844896 7.697765 23.843727 3.400833 1.989731 -14.813279 0.000000 0.000000 0.000000 19.630785 -6.734375 3.079779 25.279859 -55.825111 -29.453598 12.511931 -12.817074 -0.009561 45.939422 12.412372 -30.788557 23.508676 -2.596157 1.015558 0.993252 -7.549278 -18.729663 0.000000 0.000000 0.000000 4.074891 -17.696883 -6.630868 20.298262 1.702492 -8.316381 0.000000 0.000000 0.000000 13.204828 -17.434411 -21.006314 21.748682 -0.190560 -0.279890 0.000000 0.000000 0.000000 1.593108 -13.399433 -7.336074 26.530969 1.569427 -15.310890 0.000000 0.000000 0.000000 32.143005 14.410905 -4.852862 -9.831610 -16.801292 -2.688541 0.000000 0.000000 0.000000 -37.594229 19.840174 6.318228 -16.141702 56.370201 -17.930581 -28.267898 6.191229 -0.179147 -17.485803 -9.340195 -43.217035 -10.851610 1.088264 0.459275 -13.390764 6.362553 -23.079947 0.000000 0.000000 0.000000 4.878997 20.590468 -8.434175 -23.081122 -0.105536 -13.863103 0.000000 0.000000 0.000000 -10.796345 18.154105 -24.815884 -20.250060 -0.283043 2.938962 0.000000 0.000000 0.000000 5.002320 20.663142 -10.912801 -30.168281 -2.199992 -8.737943 0.000000 0.000000 0.000000 -37.817185 -12.462298 -5.956679 23.108289 6.116752 5.226547 0.000000 0.000000 0.000000 
-0.505951 0.812809 3.378174 2.489344 -9.594858 5.861605 -3.744398 -5.468519 -38.702366 -8.160611 0.872476 52.750325 12.391845 16.990963 -20.051244 0.000000 0.000000 0.000000 -2.672937 0.238998 -0.316153 10.022647 -0.449940 61.107698 5.061867 -9.276083 32.473334 0.000000 0.000000 0.000000 -11.187390 1.842836 39.187512 -6.737383 -3.151107 -24.384844 9.833290 3.037366 24.460509 3.316568 1.998907 -14.793378 0.000000 0.000000 0.000000 20.555414 -10.100809 4.382434 26.995357 -57.323649 -32.045112 13.875727 -10.948545 -0.147368 43.237592 11.199978 -28.764966 16.777824 3.155387 1.542869 18.956133 -7.572577 -28.081108 0.000000 0.000000 0.000000 5.550592 -18.075204 -7.344139 26.235374 1.204470 -6.775784 0.000000 0.000000 0.000000 13.483183 -21.640611 -27.403807 28.424954 0.030090 13.397489 0.000000 0.000000 0.000000 2.441610 -20.157998 -11.663000 35.278637 2.531647 0.265103 0.000000 0.000000 0.000000 34.142398 14.938421 -4.887237 -11.785735 -17.776733 -1.849461 0.000000 0.000000 0.000000 -35.062960 15.184808 5.670694 -11.019977 58.252593 -15.521564 -28.334174 9.163342 -0.889968 -18.677643 -6.932262 -43.048935 -11.267015 -3.653753 1.727389 -23.211084 2.057568 -16.304879 0.000000 0.000000 0.000000 -1.385145 11.209257 -5.370729 -3.080948 6.489487 -20.103315 0.000000 0.000000 0.000000 -12.081306 16.152302 -22.361818 -18.585171 -0.319048 2.595504 0.000000 0.000000 0.000000 7.756095 15.008343 -7.253256 -29.054939 -1.379492 -14.131613 0.000000 0.000000 0.000000 -34.028208 -10.310962 -7.448807 21.776156 1.863692 5.837723 0.000000 0.000000 0.000000 
-0.539871 0.834084 3.652710 0.769623 -0.244316 9.777629 -1.984282 -2.480214 -15.892857 -4.548374 -2.576370 41.344734 11.209961 6.910128 -25.876960 0.000000 0.000000 0.000000 -7.005121 3.593905 -50.626600 21.144432 -15.618711 78.718563 -9.964197 -27.021989 79.352255 0.000000 0.000000 0.000000 -2.442159 -2.023446 37.533455 -3.738559 -4.275374 -27.120597 6.000554 0.412187 25.200807 2.001619 1.960903 -14.114473 0.000000 0.000000 0.000000 21.174205 -20.174655 7.580801 30.957871 -54.478504 -32.605060 14.159203 -7.150900 -0.144254 41.775938 13.998668 -32.452777 21.966676 0.823308 1.867449 11.529834 -13.558137 -32.911670 0.000000 0.000000 0.000000 7.126632 -15.000603 -6.207503 22.779178 -1.055013 -16.612359 0.000000 0.000000 0.000000 17.292001 -18.140877 -22.962948 21.923170 0.046563 1.241106 0.000000 0.000000 0.000000 5.241697 -14.965215 -9.203663 29.769405 2.256025 -10.965635 0.000000 0.000000 0.000000 36.803338 10.811773 -8.893036 -17.694634 0.042298 4.946024 0.000000 0.000000 0.000000 -34.119410 14.446710 5.177410 1.007361 55.417966 -8.039309 -27.573150 10.211922 -1.009458 -18.111067 -2.936165 -37.796797 -8.138475 -1.739516 0.720053 -11.201340 4.742034 -19.348134 0.000000 0.000000 0.000000 6.324154 14.641989 -6.438217 -23.078610 0.132609 -13.250306 0.000000 0.000000 0.000000 -6.778759 17.763377 -23.430941 -34.565777 1.224932 9.659342 0.000000 0.000000 0.000000 1.848221 11.420045 -6.925048 -27.388253 -1.666415 -10.645631 0.000000 0.000000 0.000000 -33.120843 -11.133400 -7.185147 21.359658 4.513669 4.891157 0.000000 0.000000 0.000000 
